<?xml version="1.0" encoding="utf-8"?>
<!-- Generator: Adobe Illustrator 16.0.3, SVG Export Plug-In . SVG Version: 6.00 Build 0)  -->
<!DOCTYPE svg PUBLIC "-//W3C//DTD SVG 1.1//EN" "http://www.w3.org/Graphics/SVG/1.1/DTD/svg11.dtd">
<svg version="1.1" xmlns="http://www.w3.org/2000/svg" xmlns:xlink="http://www.w3.org/1999/xlink" x="0px" y="0px" width="1000px"
	 height="1000px" viewBox="0 0 1000 1000" enable-background="new 0 0 1000 1000" xml:space="preserve">
<g id="Ebene_1">
	<rect id="Background" fill="#997756" width="1000" height="1000"/>
	
		<rect id="inner" x="130.5" y="271.5" fill="none" stroke="#FFFFFF" stroke-width="55" stroke-miterlimit="10" width="737" height="461"/>
	<polyline id="outer" fill="none" stroke="#FFFFFF" stroke-width="55" stroke-miterlimit="10" points="868,271 499.5,576.587 
		131,271 	"/>
</g>
<g id="mod5_-_status">
	<g>
		<path fill="#FFFFFF" stroke="#997756" stroke-width="40" stroke-linejoin="round" stroke-miterlimit="10" d="M508.867,780.152
			c-4.397-4.272-7.745-7.935-10.052-10.986c-2.308-3.052-3.461-5.999-3.461-8.85c0-3.662,1.921-7.324,5.768-10.986
			c3.842-3.662,8.786-6.915,14.832-9.766c6.04-2.848,12.632-5.136,19.775-6.867c7.138-1.726,14.007-2.594,20.599-2.594
			c7.03,0,12.798,0.868,17.304,2.594c4.501,1.731,8.843,4.63,13.019,8.697c16.918,16.48,32.244,33.317,45.979,50.507
			c13.729,17.195,27.191,34.942,40.375,53.253c12.74-31.533,25.924-61.998,39.551-91.399c13.621-29.397,28.066-58.185,43.341-86.365
			c15.269-28.177,31.641-55.947,49.108-83.313c17.469-27.361,36.42-54.88,56.854-82.55c7.468-10.376,18.509-18.006,33.124-22.889
			c14.609-4.883,33.34-7.324,56.195-7.324c6.808,0,12.303,0.916,16.479,2.747c4.172,1.831,6.263,4.272,6.263,7.324
			c0,2.646-0.659,5.293-1.978,7.935c-1.318,2.646-3.296,5.698-5.933,9.155c-49.882,64.498-95.251,132.041-136.12,202.636
			C789.02,771.712,753.531,846.175,723.431,924.5c-1.978,5.698-6.813,9.967-14.502,12.818c-7.694,2.847-19.008,4.271-33.948,4.271
			c-7.034,0-12.967-0.204-17.797-0.609c-4.836-0.41-8.899-1.174-12.195-2.289c-3.296-1.121-6.046-2.494-8.24-4.12
			c-2.198-1.626-4.068-3.662-5.603-6.104c-9.45-14.238-18.622-27.514-27.521-39.825c-8.899-12.308-18.128-24.262-27.686-35.858
			c-9.559-11.597-19.775-23.294-30.652-35.095C534.411,805.892,522.268,793.38,508.867,780.152z"/>
	</g>
</g>
</svg>
