<?xml version="1.0" encoding="utf-8"?>
<!-- Generator: Adobe Illustrator 16.0.3, SVG Export Plug-In . SVG Version: 6.00 Build 0)  -->
<!DOCTYPE svg PUBLIC "-//W3C//DTD SVG 1.1//EN" "http://www.w3.org/Graphics/SVG/1.1/DTD/svg11.dtd">
<svg version="1.1" xmlns="http://www.w3.org/2000/svg" xmlns:xlink="http://www.w3.org/1999/xlink" x="0px" y="0px" width="1000px"
	 height="1000px" viewBox="0 0 1000 1000" enable-background="new 0 0 1000 1000" xml:space="preserve">
<g id="Ebene_1">
	<rect id="Background" fill="#997756" width="1000" height="1000"/>
	
		<rect id="inner" x="130.5" y="271.5" fill="none" stroke="#FFFFFF" stroke-width="55" stroke-miterlimit="10" width="737" height="461"/>
	<polyline id="outer" fill="none" stroke="#FFFFFF" stroke-width="55" stroke-miterlimit="10" points="868,271 499.5,576.587 
		131,271 	"/>
</g>
<g id="mod6_-_config">
	<rect id="overlay_bg_2_" x="400" y="400" display="none" fill="#997756" width="500" height="500"/>
	
		<circle fill-rule="evenodd" clip-rule="evenodd" fill="#997756" stroke="#997756" stroke-width="14" stroke-miterlimit="10" cx="650" cy="650.001" r="179"/>
	<path fill-rule="evenodd" clip-rule="evenodd" fill="#FFFFFF" stroke="#997756" stroke-width="18" stroke-miterlimit="10" d="
		M821.055,747.007c-0.877,1.545-1.773,3.074-2.688,4.589c7.556,7.731,14.374,14.881,20.498,21.485
		c-7.546,11.592-16.006,22.279-25.238,32.017c-7.844-4.422-16.384-9.392-25.662-14.943c-4.614,4.537-9.427,8.815-14.413,12.831
		c4.456,9.844,8.419,18.889,11.914,27.182c-10.96,8.204-22.584,15.357-34.723,21.383c-5.868-6.84-12.205-14.434-19.033-22.828
		c-5.861,2.661-11.842,5.028-17.92,7.101c0.82,10.773,1.45,20.628,1.9,29.615c-13.03,3.942-26.414,6.697-39.975,8.243
		c-3.172-8.42-6.525-17.703-10.069-27.905c-6.404,0.505-12.846,0.702-19.301,0.576c-2.915,10.395-5.695,19.859-8.35,28.45
		c-13.501-0.732-27.021-2.679-40.396-5.902c-0.103-8.998-0.077-18.874,0.085-29.681c-6.162-1.713-12.278-3.74-18.332-6.088
		c-6.297,8.763-12.149,16.699-17.585,23.856c-7.701-3.297-15.301-7.039-22.76-11.269c-4.527-2.568-8.922-5.279-13.203-8.106
		c2.982-8.476,6.385-17.73,10.231-27.809c-5.298-3.763-10.357-7.754-15.178-11.949c-8.926,6.08-17.15,11.537-24.713,16.403
		c-10.071-9.399-19.148-19.605-27.187-30.461c5.71-6.947,12.084-14.482,19.157-22.644c-3.66-5.321-7.042-10.807-10.145-16.43
		c-10.47,2.661-20.07,4.973-28.845,6.959c-6.181-12.182-11.235-24.878-15.111-37.92c7.748-4.568,16.319-9.469,25.76-14.712
		c-1.618-6.221-2.934-12.517-3.938-18.869c-10.761-1.082-20.583-2.189-29.519-3.322c-1.653-13.465-2.095-27.108-1.282-40.765
		c8.848-1.646,18.582-3.319,29.254-5.017c0.604-6.381,1.525-12.753,2.768-19.097c-9.745-4.691-18.598-9.086-26.61-13.203
		c3.045-13.087,7.297-26.036,12.815-38.698c8.887,1.479,18.618,3.234,29.24,5.287c1.991-4.163,4.129-8.293,6.442-12.371
		c0.876-1.546,1.775-3.076,2.687-4.59c-7.555-7.731-14.374-14.885-20.497-21.485c7.544-11.594,16.006-22.28,25.236-32.018
		c7.844,4.422,16.386,9.394,25.663,14.941c4.615-4.535,9.426-8.814,14.413-12.828c-4.454-9.845-8.418-18.889-11.913-27.181
		c10.959-8.207,22.585-15.358,34.724-21.384c5.867,6.841,12.203,14.433,19.033,22.827c5.86-2.66,11.84-5.026,17.919-7.099
		c-0.82-10.773-1.451-20.629-1.9-29.615c13.031-3.943,26.414-6.699,39.976-8.243c3.173,8.417,6.524,17.703,10.067,27.904
		c6.405-0.506,12.846-0.702,19.303-0.576c2.912-10.394,5.694-19.859,8.348-28.449c13.504,0.732,27.023,2.677,40.396,5.899
		c0.101,9,0.076,18.876-0.084,29.682c6.16,1.715,12.277,3.741,18.33,6.089c6.297-8.762,12.151-16.7,17.585-23.858
		c7.702,3.298,15.303,7.041,22.761,11.27c4.527,2.568,8.922,5.28,13.203,8.106c-2.984,8.476-6.385,17.731-10.23,27.808
		c5.296,3.765,10.354,7.755,15.177,11.951c8.926-6.081,17.151-11.536,24.713-16.405c10.071,9.4,19.149,19.607,27.188,30.462
		c-5.711,6.947-12.085,14.484-19.157,22.644c3.66,5.32,7.042,10.806,10.146,16.429c10.469-2.659,20.068-4.973,28.844-6.959
		c6.18,12.183,11.235,24.878,15.111,37.921c-7.747,4.569-16.317,9.468-25.761,14.712c1.619,6.22,2.934,12.516,3.938,18.87
		c10.762,1.081,20.583,2.188,29.52,3.321c1.653,13.465,2.094,27.109,1.282,40.765c-8.848,1.646-18.582,3.318-29.253,5.018
		c-0.605,6.379-1.526,12.751-2.771,19.096c9.746,4.691,18.6,9.085,26.611,13.203c-3.045,13.086-7.296,26.037-12.814,38.699
		c-8.889-1.48-18.619-3.235-29.242-5.289C825.506,738.799,823.367,742.927,821.055,747.007z M650.331,808.837
		c154.729-1.063,12.733-127.622-1.094-127.525C635.408,681.406,500.754,809.867,650.331,808.837z M491.004,650.063
		c1.325,154.58,127.772,12.936,127.653-0.878C618.539,635.37,489.722,500.637,491.004,650.063z M649.67,491.162
		c-154.731,1.065-12.735,127.624,1.092,127.528C664.591,618.596,799.244,490.135,649.67,491.162z M670.988,650.887
		c-0.103-12.072-9.984-21.794-22.069-21.711c-12.086,0.085-21.797,9.938-21.693,22.013c0.103,12.073,9.983,21.792,22.068,21.71
		C661.38,672.816,671.092,662.96,670.988,650.887z M808.996,649.938c-1.325-154.578-127.772-12.937-127.653,0.878
		C681.459,664.629,810.276,799.363,808.996,649.938z"/>
</g>
</svg>
